<svg width="10" height="11" viewBox="0 0 10 11" fill="none" xmlns="http://www.w3.org/2000/svg">
<path d="M9.32987 2.54103L8.16958 1.87109L7.49983 0.710952H6.16018L4.99988 0.0410156L3.83959 0.710952H2.49994L1.83002 1.87127L0.669925 2.54103V3.8807L0 5.04102L0.669925 6.20133V7.541L1.83022 8.21094L2.50014 9.37125H3.83979L4.99991 10.041L6.16021 9.37108H7.49986L8.16978 8.21076L9.33008 7.54083V6.20116L10 5.04084L9.33008 3.88053V2.54103H9.32987ZM4.54862 7.08747C4.45539 7.1807 4.33257 7.22601 4.21029 7.2243C4.08799 7.22604 3.9652 7.1807 3.87197 7.08747L2.40967 5.62514C2.22649 5.44196 2.22649 5.1448 2.40967 4.96162L2.79678 4.5745C2.97996 4.39131 3.27712 4.39131 3.4603 4.5745L4.21029 5.3245L6.53935 2.99523C6.72253 2.81205 7.01969 2.81205 7.20287 2.99523L7.58998 3.38235C7.77316 3.56553 7.77316 3.8627 7.58998 4.04588L4.54862 7.08747Z" fill="#05B862"/>
</svg>
