<svg width="18" height="15" viewBox="0 0 18 15" fill="none" xmlns="http://www.w3.org/2000/svg">
<path d="M3.92475 8.09619L0.17475 4.5337C0.063 4.4272 0 4.2802 0 4.1257C0 3.9712 0.063 3.8242 0.17475 3.7177L3.92475 0.155206C4.28475 -0.185293 4.875 0.0719564 4.875 0.563206V2.2507H11.8125C12.3293 2.2507 12.75 2.67145 12.75 3.1882V5.0632C12.75 5.57995 12.3293 6.0007 11.8125 6.0007H4.875V7.68819C4.875 8.18319 4.281 8.43369 3.92475 8.09619Z"/>
<path d="M12.75 4.125H0C0 4.2795 0.063 4.4265 0.17475 4.533L3.92475 8.09549C4.038 8.20199 4.1745 8.24999 4.308 8.24999C4.5975 8.24999 4.875 8.02574 4.875 7.68749V6H11.8125C12.3293 6 12.75 5.57925 12.75 5.0625V4.125Z" />
<path d="M13.125 14.4377V12.7502H6.1875C5.67075 12.7502 5.25 12.3294 5.25 11.8127V9.93767C5.25 9.42092 5.67075 9.00017 6.1875 9.00017H13.125V7.31267C13.125 6.81917 13.7183 6.56642 14.0753 6.90467L17.8253 10.4672C17.937 10.5737 18 10.7207 18 10.8752C18 11.0297 17.937 11.1767 17.8253 11.2832L14.0753 14.8457C13.7183 15.1839 13.125 14.9319 13.125 14.4377Z" />
<path d="M18 10.875H5.25V11.8125C5.25 12.3292 5.67075 12.75 6.1875 12.75H13.125V14.4375C13.125 14.7757 13.4025 15 13.692 15C13.8255 15 13.962 14.952 14.0745 14.8455L17.8245 11.283C17.937 11.1765 18 11.0295 18 10.875Z" />
</svg>
