<svg width="14" height="12" viewBox="0 0 14 12" fill="none" xmlns="http://www.w3.org/2000/svg">
<path d="M4.89062 8.10771C5.35186 8.39001 5.90675 8.55503 6.50341 8.55503C8.09968 8.55503 9.39842 7.37435 9.39842 5.9232C9.39842 5.38078 9.2169 4.87634 8.90637 4.45703L4.89062 8.10771Z" fill="#FF4B01"/>
<path d="M6.50244 3.29102C4.90608 3.29102 3.60742 4.47161 3.60742 5.92285C3.60742 6.5372 3.84073 7.10254 4.2303 7.55084L8.29315 3.85734C7.8001 3.50311 7.17822 3.29102 6.50244 3.29102Z" fill="#FF4B01"/>
<path d="M6.50365 0C2.91396 0 0.00390625 2.64574 0.00390625 5.90897C0.00390625 9.17221 2.91396 11.8182 6.50365 11.8182C10.0933 11.8182 13.0036 9.17237 13.0036 5.90897C13.0036 2.64558 10.0934 0 6.50365 0ZM6.50378 9.37209C4.41164 9.37209 2.70964 7.8247 2.70964 5.92288C2.70964 4.02094 4.41164 2.47366 6.50378 2.47366C8.59578 2.47366 10.2979 4.02094 10.2979 5.92288C10.2979 7.8247 8.59578 9.37209 6.50378 9.37209Z" fill="#FF4B01"/>
</svg>
