<svg width="16" height="18" viewBox="0 0 16 18" fill="none" xmlns="http://www.w3.org/2000/svg">
<path d="M13.9686 0H1.97423C1.02324 0 0.260742 0.89 0.260742 2V6H1.97423V2H13.9686V16H1.97423V12H0.260742V16C0.260742 16.5304 0.441269 17.0391 0.76261 17.4142C1.08395 17.7893 1.51978 18 1.97423 18H13.9686C14.4231 18 14.8589 17.7893 15.1802 17.4142C15.5016 17.0391 15.6821 16.5304 15.6821 16V2C15.6821 0.89 14.911 0 13.9686 0ZM6.32647 12.58L7.54305 14L11.8268 9L7.54305 4L6.32647 5.41L8.54543 8H0.260742V10H8.54543L6.32647 12.58Z" fill="#FF4400"/>
</svg>
