<svg width="157" height="38" viewBox="0 0 157 38" fill="none" xmlns="http://www.w3.org/2000/svg">
<path d="M56.8167 9.71384L51.5731 29.3203H49.2799L45.3908 16.1242C45.2746 15.7487 45.1628 15.3732 45.0555 14.9977C44.9572 14.6132 44.8633 14.2511 44.7739 13.9114C44.6845 13.5627 44.6085 13.2587 44.5459 12.9995C44.4923 12.7313 44.452 12.5301 44.4252 12.396C44.4073 12.5301 44.3716 12.7268 44.3179 12.9861C44.2732 13.2453 44.2106 13.5448 44.1302 13.8846C44.0587 14.2243 43.9693 14.5864 43.862 14.9708C43.7636 15.3553 43.6563 15.7442 43.5401 16.1376L39.7583 29.3203H37.4651L32.2617 9.71384H34.6354L37.7869 22.0115C37.8942 22.4227 37.9925 22.8295 38.0819 23.2318C38.1803 23.6252 38.2652 24.0097 38.3368 24.3852C38.4172 24.7607 38.4887 25.1272 38.5513 25.4848C38.6139 25.8425 38.672 26.1911 38.7257 26.5309C38.7704 26.1822 38.8285 25.8201 38.9 25.4446C38.9715 25.0602 39.0475 24.6713 39.128 24.2779C39.2174 23.8845 39.3113 23.4866 39.4096 23.0843C39.5169 22.682 39.6287 22.2797 39.7449 21.8774L43.2719 9.71384H45.6188L49.2933 21.9712C49.4185 22.3914 49.5347 22.8072 49.642 23.2184C49.7493 23.6297 49.8432 24.032 49.9236 24.4254C50.013 24.8098 50.089 25.1809 50.1516 25.5385C50.2231 25.8872 50.2857 26.218 50.3393 26.5309C50.4019 26.0928 50.4779 25.6324 50.5673 25.1496C50.6567 24.6668 50.7595 24.1617 50.8758 23.6342C51.0009 23.1067 51.135 22.5613 51.2781 21.9981L54.4296 9.71384H56.8167ZM65.0777 14.3808C66.8301 14.3808 68.1309 14.7742 68.9802 15.5609C69.8296 16.3477 70.2543 17.6038 70.2543 19.3293V29.3203H68.6316L68.2024 27.1478H68.0951C67.6839 27.6842 67.2547 28.1357 66.8077 28.5023C66.3607 28.8599 65.8421 29.1326 65.2521 29.3203C64.6709 29.4991 63.9557 29.5885 63.1064 29.5885C62.2123 29.5885 61.4166 29.4321 60.7192 29.1192C60.0308 28.8062 59.4855 28.3324 59.0831 27.6976C58.6898 27.0628 58.4931 26.2582 58.4931 25.2837C58.4931 23.8174 59.0742 22.6909 60.2365 21.9042C61.3987 21.1174 63.1689 20.6883 65.5471 20.6168L68.0817 20.5095V19.611C68.0817 18.3414 67.809 17.4518 67.2637 16.9422C66.7183 16.4326 65.9494 16.1778 64.957 16.1778C64.1882 16.1778 63.455 16.2896 62.7577 16.5131C62.0603 16.7366 61.3987 17.0003 60.7729 17.3043L60.0889 15.6146C60.7505 15.2748 61.5105 14.9843 62.3688 14.7429C63.227 14.5015 64.13 14.3808 65.0777 14.3808ZM68.0549 22.0785L65.8153 22.1724C63.9825 22.2439 62.6906 22.5434 61.9396 23.0709C61.1886 23.5984 60.8131 24.3449 60.8131 25.3105C60.8131 26.1509 61.0679 26.7723 61.5775 27.1746C62.0871 27.5769 62.7621 27.7781 63.6026 27.7781C64.9079 27.7781 65.9762 27.416 66.8077 26.6918C67.6392 25.9676 68.0549 24.8814 68.0549 23.433V22.0785ZM72.5207 14.6222H74.9078L78.1532 23.1514C78.3409 23.652 78.5153 24.1348 78.6762 24.5997C78.8371 25.0557 78.9802 25.4938 79.1053 25.914C79.2305 26.3342 79.3289 26.741 79.4004 27.1344H79.4943C79.6194 26.6873 79.7982 26.1017 80.0307 25.3776C80.2631 24.6444 80.5135 23.8979 80.7817 23.138L83.8527 14.6222H86.2533L79.8563 31.4794C79.5166 32.3824 79.1188 33.1692 78.6628 33.8397C78.2158 34.5103 77.6704 35.0243 77.0267 35.382C76.383 35.7485 75.6051 35.9318 74.6932 35.9318C74.273 35.9318 73.902 35.905 73.5801 35.8513C73.2583 35.8066 72.9811 35.753 72.7487 35.6904V33.9068C72.9454 33.9515 73.1823 33.9917 73.4594 34.0275C73.7455 34.0632 74.0406 34.0811 74.3445 34.0811C74.8988 34.0811 75.3772 33.9738 75.7795 33.7593C76.1907 33.5536 76.5439 33.2497 76.8389 32.8473C77.134 32.445 77.3888 31.9667 77.6033 31.4124L78.408 29.3471L72.5207 14.6222ZM94.0985 14.3808C95.8509 14.3808 97.1517 14.7742 98.001 15.5609C98.8504 16.3477 99.2751 17.6038 99.2751 19.3293V29.3203H97.6524L97.2232 27.1478H97.1159C96.7047 27.6842 96.2755 28.1357 95.8285 28.5023C95.3815 28.8599 94.8629 29.1326 94.2729 29.3203C93.6917 29.4991 92.9765 29.5885 92.1272 29.5885C91.2331 29.5885 90.4374 29.4321 89.74 29.1192C89.0516 28.8062 88.5063 28.3324 88.1039 27.6976C87.7106 27.0628 87.5139 26.2582 87.5139 25.2837C87.5139 23.8174 88.095 22.6909 89.2573 21.9042C90.4195 21.1174 92.1897 20.6883 94.5679 20.6168L97.1025 20.5095V19.611C97.1025 18.3414 96.8298 17.4518 96.2845 16.9422C95.7391 16.4326 94.9702 16.1778 93.9778 16.1778C93.209 16.1778 92.4758 16.2896 91.7785 16.5131C91.0811 16.7366 90.4195 17.0003 89.7937 17.3043L89.1097 15.6146C89.7713 15.2748 90.5313 14.9843 91.3896 14.7429C92.2478 14.5015 93.1508 14.3808 94.0985 14.3808ZM97.0757 22.0785L94.8361 22.1724C93.0033 22.2439 91.7114 22.5434 90.9604 23.0709C90.2094 23.5984 89.8339 24.3449 89.8339 25.3105C89.8339 26.1509 90.0887 26.7723 90.5983 27.1746C91.1079 27.5769 91.7829 27.7781 92.6233 27.7781C93.9287 27.7781 94.997 27.416 95.8285 26.6918C96.66 25.9676 97.0757 24.8814 97.0757 23.433V22.0785ZM110.245 9.71384C112.775 9.71384 114.621 10.2592 115.784 11.3499C116.946 12.4317 117.527 13.9248 117.527 15.8291C117.527 16.6874 117.397 17.5099 117.138 18.2967C116.879 19.0745 116.454 19.7674 115.864 20.3754C115.283 20.9833 114.505 21.4661 113.531 21.8237C112.556 22.1724 111.354 22.3467 109.923 22.3467H108.14V29.3203H103.982V9.71384H110.245ZM110.03 13.1202H108.14V18.9404H109.507C110.285 18.9404 110.96 18.8376 111.532 18.632C112.105 18.4263 112.547 18.1045 112.86 17.6664C113.173 17.2283 113.33 16.6651 113.33 15.9766C113.33 15.0111 113.061 14.2958 112.525 13.8309C111.988 13.3571 111.157 13.1202 110.03 13.1202ZM139.024 19.4903C139.024 21.0012 138.837 22.378 138.461 23.6208C138.086 24.8545 137.513 25.9185 136.745 26.8125C135.985 27.7066 135.019 28.395 133.848 28.8778C132.677 29.3516 131.291 29.5885 129.691 29.5885C128.09 29.5885 126.704 29.3516 125.533 28.8778C124.362 28.395 123.392 27.7066 122.623 26.8125C121.863 25.9185 121.295 24.8501 120.92 23.6073C120.544 22.3646 120.357 20.9833 120.357 19.4634C120.357 17.4339 120.688 15.6682 121.349 14.1662C122.02 12.6553 123.048 11.4841 124.434 10.6526C125.819 9.82113 127.581 9.40539 129.717 9.40539C131.845 9.40539 133.593 9.82113 134.961 10.6526C136.338 11.4841 137.357 12.6553 138.019 14.1662C138.689 15.6771 139.024 17.4518 139.024 19.4903ZM124.715 19.4903C124.715 20.8581 124.885 22.0383 125.225 23.0307C125.573 24.0141 126.114 24.7741 126.848 25.3105C127.581 25.838 128.528 26.1017 129.691 26.1017C130.871 26.1017 131.827 25.838 132.56 25.3105C133.294 24.7741 133.826 24.0141 134.156 23.0307C134.496 22.0383 134.666 20.8581 134.666 19.4903C134.666 17.4339 134.282 15.8157 133.513 14.6356C132.744 13.4554 131.479 12.8654 129.717 12.8654C128.546 12.8654 127.59 13.1336 126.848 13.67C126.114 14.1975 125.573 14.9574 125.225 15.9498C124.885 16.9333 124.715 18.1134 124.715 19.4903ZM154.661 23.8756C154.661 25.0378 154.38 26.0481 153.816 26.9064C153.253 27.7647 152.431 28.4263 151.349 28.8912C150.276 29.3561 148.971 29.5885 147.433 29.5885C146.753 29.5885 146.087 29.5438 145.435 29.4544C144.791 29.365 144.17 29.2354 143.571 29.0655C142.981 28.8867 142.417 28.6677 141.881 28.4084V24.5461C142.811 24.9574 143.776 25.3284 144.778 25.6592C145.779 25.99 146.771 26.1554 147.755 26.1554C148.434 26.1554 148.98 26.066 149.391 25.8872C149.811 25.7084 150.115 25.4625 150.303 25.1496C150.491 24.8367 150.584 24.479 150.584 24.0767C150.584 23.585 150.419 23.1648 150.088 22.8161C149.757 22.4674 149.302 22.1411 148.72 21.8371C148.148 21.5332 147.5 21.2068 146.776 20.8581C146.32 20.6436 145.824 20.3843 145.287 20.0803C144.751 19.7674 144.241 19.3874 143.758 18.9404C143.276 18.4934 142.878 17.9525 142.565 17.3177C142.261 16.674 142.109 15.9051 142.109 15.0111C142.109 13.8399 142.377 12.8385 142.914 12.0071C143.45 11.1756 144.214 10.5408 145.207 10.1028C146.208 9.65573 147.388 9.43221 148.747 9.43221C149.766 9.43221 150.736 9.55291 151.657 9.7943C152.587 10.0268 153.557 10.3665 154.567 10.8135L153.226 14.0455C152.323 13.6789 151.514 13.3973 150.799 13.2006C150.084 12.995 149.355 12.8922 148.613 12.8922C148.095 12.8922 147.652 12.9771 147.285 13.147C146.919 13.3079 146.642 13.5404 146.454 13.8443C146.266 14.1394 146.172 14.4836 146.172 14.877C146.172 15.3419 146.306 15.7353 146.575 16.0571C146.852 16.37 147.263 16.674 147.808 16.969C148.363 17.2641 149.051 17.6083 149.874 18.0017C150.875 18.4755 151.729 18.9717 152.435 19.4903C153.15 19.9999 153.7 20.6033 154.085 21.3007C154.469 21.9891 154.661 22.8474 154.661 23.8756Z" fill="#FF4400"/>
<path d="M13.5673 27.809C7.68811 30.7513 2.07277 29.0349 0 27.809L20.9162 14.0312L7.34893 15.6434L0 10.8337C2.26121 10.1735 7.57505 8.90982 10.7407 9.13616C12.5577 9.26606 16.7582 11.5147 20.9162 14.0312C24.0027 15.8993 27.0658 17.915 29.1131 19.3213C26.3808 20.9245 19.4464 24.8666 13.5673 27.809Z" fill="url(#paint0_linear_1850_18410)"/>
<defs>
<linearGradient id="paint0_linear_1850_18410" x1="14.5565" y1="9.10937" x2="14.5565" y2="29.4336" gradientUnits="userSpaceOnUse">
<stop stop-color="#FF4B01"/>
<stop offset="1" stop-color="#CE0000"/>
</linearGradient>
</defs>
</svg>
