<svg width="19" height="18" viewBox="0 0 19 18" fill="none" xmlns="http://www.w3.org/2000/svg">
<path d="M18.0756 2.82384C17.9736 2.65333 17.8055 2.53378 17.6115 2.49476L7.31755 0.0130795C6.97829 -0.0526853 6.64359 0.134726 6.52617 0.458884L2.6024 10.427L3.91233 10.9044L7.63079 1.42629L16.5751 3.70869C16.0165 5.4404 14.6872 9.05481 13.4131 12.4202C12.3022 15.3565 11.6629 16.362 10.448 16.5674C10.4465 16.5659 10.4452 16.5645 10.4452 16.5624C7.96208 16.9105 8.00665 13.7449 8.00665 13.7449L0.0762616 10.5415C-0.487295 14.1135 2.25741 14.9726 2.25741 14.9726L8.06356 17.6087C8.06495 17.6094 8.97133 18.0412 9.95644 17.9968C12.6136 17.9342 13.5474 16.0048 14.7174 12.9137C16.4077 8.44636 18.1234 3.44075 18.1403 3.38766C18.2007 3.19826 18.1769 2.99399 18.0756 2.82384Z"/>
<path d="M13.3831 6.84318C13.4436 6.85972 13.5062 6.8685 13.568 6.8685C13.8739 6.8685 14.1537 6.66459 14.2394 6.3552C14.3413 5.98358 14.1213 5.59968 13.7502 5.49842L10.7289 4.56592C10.3619 4.46434 9.97371 4.68265 9.87245 5.05391C9.77116 5.4255 9.98922 5.80943 10.3618 5.91105L13.3831 6.84318Z" />
<path d="M8.66268 7.8464C8.54159 8.21241 8.73818 8.60656 9.10316 8.72872L12.1086 9.8027C12.1815 9.82699 12.2533 9.8379 12.3256 9.8383C12.6187 9.83985 12.8933 9.65493 12.9912 9.36215C13.1126 8.99714 12.9164 8.6024 12.55 8.48032L9.54569 7.40703C9.17855 7.28553 8.78521 7.48209 8.66268 7.8464Z" />
<path d="M8.39831 10.3173C8.03267 10.1949 7.63786 10.3946 7.51831 10.7617C7.39809 11.1259 7.59847 11.5211 7.96411 11.6406L10.9758 12.7101C11.0484 12.7347 11.1206 12.7453 11.1939 12.7453C11.4864 12.7453 11.7592 12.559 11.8556 12.2664C11.9758 11.9001 11.7761 11.5056 11.4105 11.3861L8.39831 10.3173Z" />
<path d="M8.28712 3.75391C8.71393 3.75391 9.06025 4.0907 9.06025 4.50557C9.06025 4.92077 8.71393 5.2572 8.28712 5.2572C7.85998 5.2572 7.51367 4.92073 7.51367 4.50557C7.51371 4.0907 7.85998 3.75391 8.28712 3.75391Z"/>
<path d="M7.19337 6.54688C7.62055 6.54688 7.9665 6.88334 7.9665 7.29817C7.9665 7.71267 7.62055 8.0491 7.19337 8.0491C6.76623 8.0491 6.41992 7.71267 6.41992 7.29817C6.41992 6.88338 6.76623 6.54688 7.19337 6.54688Z" />
<path d="M6.02638 9.42969C6.45356 9.42969 6.79983 9.76652 6.79983 10.1821C6.79983 10.5969 6.45356 10.933 6.02638 10.933C5.59924 10.933 5.25293 10.597 5.25293 10.1821C5.25293 9.76652 5.59924 9.42969 6.02638 9.42969Z" />
</svg>
