<svg width="40" height="40" viewBox="0 0 40 40" fill="none" xmlns="http://www.w3.org/2000/svg">
<circle cx="20" cy="20" r="20" fill="#FF4400"/>
<path d="M32.0344 20.7122H28.4853V17.6948H32.0344C32.5677 17.6948 33 17.3127 33 16.8409C33 16.369 32.5677 15.9867 32.0344 15.9867H28.4853V11.7999C28.4853 11.1887 28.3487 10.7401 28.0796 10.4669C27.8238 10.2069 27.4875 10.0859 27.0218 10.0859C26.5774 10.0859 26.2538 10.2061 26.0029 10.4644C25.7369 10.7379 25.6019 11.1874 25.6019 11.8002V15.9872H18.9258L16.0871 12.1874C15.8442 11.8483 15.6158 11.5306 15.3939 11.2257C15.1942 10.9511 14.9994 10.7275 14.8154 10.5606C14.6525 10.4128 14.4669 10.2984 14.2498 10.2105C14.045 10.1277 13.7845 10.0862 13.4764 10.0862C13.0834 10.0862 12.7267 10.1815 12.3851 10.3771C12.047 10.5707 11.8134 10.81 11.6707 11.1087C11.5454 11.3926 11.4791 11.8277 11.4791 12.3893V15.987H7.96521C7.43202 15.987 7 16.3693 7 16.8411C7 17.313 7.43202 17.695 7.96526 17.695H11.4792V20.7128H7.96526C7.43202 20.7128 7 21.0949 7 21.5669C7 22.0386 7.43202 22.4205 7.96526 22.4205H11.4792V27.2009C11.4792 27.794 11.6201 28.238 11.8991 28.5202C12.1645 28.7892 12.5009 28.9141 12.9578 28.9141C13.3986 28.9141 13.7325 28.7886 14.0093 28.5191C14.2928 28.243 14.4362 27.7992 14.4362 27.2009V22.4205H20.4774L23.7466 26.8551C23.9739 27.1483 24.2086 27.4441 24.4427 27.7343C24.6539 27.9948 24.8843 28.2243 25.1274 28.4161C25.3464 28.5895 25.5811 28.7166 25.8251 28.7941C26.0762 28.8741 26.3698 28.9147 26.6956 28.9147C27.5797 28.9147 28.4851 28.6752 28.4851 26.8996V22.4205H32.0343C32.5676 22.4205 32.9999 22.0381 32.9999 21.5664C33 21.0947 32.5677 20.7122 32.0344 20.7122ZM25.6019 17.6947V20.7122H22.4562L20.2023 17.6947H25.6019ZM14.4363 14.2276L15.7335 15.9867H14.4363V14.2276ZM14.4363 20.7122V17.6948H16.9931L19.2179 20.7122H14.4363ZM25.6019 24.9239L23.7324 22.4205H25.6019V24.9239Z" fill="white"/>
</svg>
