<svg width="18" height="18" viewBox="0 0 18 18" fill="none" xmlns="http://www.w3.org/2000/svg">
<path d="M2.95779 13.6978C2.88754 13.5758 2.72854 13.5351 2.60652 13.6054L1.96313 13.9788V13.2356C1.96313 13.0951 1.84851 12.9805 1.708 12.9805C1.56749 12.9805 1.45286 13.0951 1.45286 13.2356V13.9788L0.809477 13.6054C0.687456 13.5351 0.528458 13.5758 0.458204 13.6978C0.387949 13.8198 0.428623 13.9788 0.550644 14.0491L1.19773 14.4262L0.550644 14.8034C0.428623 14.8736 0.387949 15.0326 0.458204 15.1547C0.528458 15.2767 0.687456 15.3174 0.809477 15.2471L1.45286 14.8736V15.6169C1.45286 15.7574 1.56749 15.872 1.708 15.872C1.84851 15.872 1.96313 15.7574 1.96313 15.6169V14.8736L2.60652 15.2471C2.72854 15.3174 2.88754 15.2767 2.95779 15.1547C3.02805 15.0326 2.98737 14.8736 2.86535 14.8034L2.21827 14.4262L2.86535 14.0491C2.98737 13.9751 3.03174 13.8198 2.95779 13.6978Z"/>
<path d="M5.32051 15.1508C5.39076 15.2728 5.54976 15.3135 5.67178 15.2432L6.31517 14.8697V15.613C6.31517 15.7535 6.42979 15.8681 6.5703 15.8681C6.71081 15.8681 6.82544 15.7535 6.82544 15.613V14.8697L7.46882 15.2432C7.59085 15.3135 7.74984 15.2728 7.8201 15.1508C7.89035 15.0287 7.84968 14.8697 7.72766 14.7995L7.08057 14.4223L7.72766 14.0452C7.84968 13.9749 7.89035 13.8159 7.8201 13.6939C7.74984 13.5719 7.59085 13.5312 7.46882 13.6015L6.82544 13.9749V13.2317C6.82544 13.0912 6.71081 12.9766 6.5703 12.9766C6.42979 12.9766 6.31517 13.0912 6.31517 13.2317V13.9749L5.67178 13.6052C5.54976 13.5349 5.39076 13.5756 5.32051 13.6976C5.25025 13.8196 5.29093 13.9786 5.41295 14.0489L6.06003 14.426L5.41295 14.7995C5.29093 14.8697 5.25025 15.0287 5.32051 15.1508Z" />
<path d="M4.8623 17.0886V17.5397C4.8623 17.6469 4.95105 17.7356 5.05828 17.7356H8.08663C8.19386 17.7356 8.2826 17.6469 8.2826 17.5397V17.0886C8.2826 16.9813 8.19386 16.8926 8.08663 16.8926H5.05828C4.94735 16.8926 4.8623 16.9813 4.8623 17.0886Z" />
<path d="M12.2427 4.4796H12.2205V3.47385C12.2205 1.72487 10.7895 0.238431 9.04427 0.268012C7.34706 0.297593 5.97155 1.6879 5.97155 3.3925V3.48864C5.97155 3.63284 6.08988 3.75117 6.23408 3.75117H7.07344C7.21765 3.75117 7.33597 3.63284 7.33597 3.48864V3.45906C7.33597 2.51986 8.04221 1.69529 8.98141 1.63613C10.0019 1.57327 10.8524 2.38305 10.8524 3.3888V4.4759H8.26407V4.4796H5.87172C5.428 4.49439 5.06934 4.85306 5.06934 5.30047V9.84854C5.06934 10.3033 5.4391 10.6731 5.8939 10.6731H12.239C12.6938 10.6731 13.0636 10.3033 13.0636 9.84854V5.30417C13.0673 4.84936 12.6975 4.4796 12.2427 4.4796ZM9.55823 7.78157C9.49537 7.82594 9.47689 7.87401 9.47689 7.94796C9.48058 8.28075 9.48058 8.61353 9.47689 8.95002C9.48428 9.09053 9.41403 9.22364 9.28831 9.2865C8.9962 9.43441 8.70409 9.22734 8.70409 8.95002C8.70409 8.95002 8.70409 8.95002 8.70409 8.94632C8.70409 8.61353 8.70409 8.27705 8.70409 7.94427C8.70409 7.87771 8.6893 7.82964 8.63013 7.78527C8.32693 7.56341 8.22709 7.18256 8.3787 6.84607C8.5266 6.52068 8.88527 6.32841 9.22175 6.39866C9.59891 6.47261 9.86144 6.77952 9.86514 7.15298C9.87623 7.41551 9.769 7.62997 9.55823 7.78157Z"/>
<path d="M9.7207 17.0886V17.5397C9.7207 17.6469 9.80945 17.7356 9.91668 17.7356H12.945C13.0523 17.7356 13.141 17.6469 13.141 17.5397V17.0886C13.141 16.9813 13.0523 16.8926 12.945 16.8926H9.91668C9.80945 16.8926 9.7207 16.9813 9.7207 17.0886Z" />
<path d="M10.1799 15.1508C10.2501 15.2728 10.4091 15.3135 10.5312 15.2432L11.1745 14.8697V15.613C11.1745 15.7535 11.2892 15.8681 11.4297 15.8681C11.5702 15.8681 11.6848 15.7535 11.6848 15.613V14.8697L12.3282 15.2432C12.4502 15.3135 12.6092 15.2728 12.6795 15.1508C12.7497 15.0287 12.7091 14.8697 12.587 14.7995L11.94 14.4223L12.587 14.0452C12.7091 13.9749 12.7497 13.8159 12.6795 13.6939C12.6092 13.5719 12.4502 13.5312 12.3282 13.6015L11.6848 13.9749V13.2317C11.6848 13.0912 11.5702 12.9766 11.4297 12.9766C11.2892 12.9766 11.1745 13.0912 11.1745 13.2317V13.9749L10.5312 13.6015C10.4091 13.5312 10.2501 13.5719 10.1799 13.6939C10.1096 13.8159 10.1503 13.9749 10.2723 14.0452L10.9194 14.4223L10.2723 14.7995C10.1503 14.8697 10.1096 15.0287 10.1799 15.1508Z" />
<path d="M17.8044 16.8926H14.7761C14.6688 16.8926 14.5801 16.9813 14.5801 17.0886V17.5397C14.5801 17.6469 14.6688 17.7356 14.7761 17.7356H17.8044C17.9116 17.7356 18.0004 17.6469 18.0004 17.5397V17.0886C18.0004 16.9813 17.9116 16.8926 17.8044 16.8926Z" />
<path d="M0.195974 17.7356H3.22432C3.33155 17.7356 3.4203 17.6469 3.4203 17.5397V17.0886C3.4203 16.9813 3.33155 16.8926 3.22432 16.8926H0.195974C0.0887428 16.8926 0 16.9813 0 17.0886V17.5397C0 17.6469 0.0887428 17.7356 0.195974 17.7356Z" />
<path d="M15.0419 15.1508C15.1121 15.2728 15.2711 15.3135 15.3932 15.2432L16.0365 14.8697V15.613C16.0365 15.7535 16.1512 15.8681 16.2917 15.8681C16.4322 15.8681 16.5468 15.7535 16.5468 15.613V14.8697L17.1902 15.2432C17.3122 15.3135 17.4712 15.2728 17.5415 15.1508C17.6117 15.0287 17.571 14.8697 17.449 14.7995L16.8019 14.4223L17.449 14.0452C17.571 13.9749 17.6117 13.8159 17.5415 13.6939C17.4712 13.5719 17.3122 13.5312 17.1902 13.6015L16.5468 13.9749V13.2317C16.5468 13.0912 16.4322 12.9766 16.2917 12.9766C16.1512 12.9766 16.0365 13.0912 16.0365 13.2317V13.9749L15.3932 13.6015C15.2711 13.5312 15.1121 13.5719 15.0419 13.6939C14.9716 13.8159 15.0123 13.9749 15.1343 14.0452L15.7814 14.4223L15.1343 14.7995C15.0123 14.8697 14.9679 15.0287 15.0419 15.1508Z" />
</svg>
