<svg width="18" height="22" viewBox="0 0 18 22" fill="none" xmlns="http://www.w3.org/2000/svg">
<path d="M14.9203 5.0804H13.4268V0.467932C13.4268 0.2095 13.0714 0 12.633 0H4.69513C4.25673 0 3.90134 0.2095 3.90134 0.467932V5.0804H2.40782C1.08023 5.0804 0 5.7171 0 6.49975V20.5807C0 21.3633 1.08015 22 2.40782 22H14.9203C16.2479 22 17.328 21.3633 17.328 20.5807V6.49979C17.328 5.71714 16.248 5.0804 14.9203 5.0804ZM12.5933 7.84226V10.9792H4.73489V7.84226H12.5933ZM11.8392 0.935863V6.88813L5.48891 6.88809V0.935863H11.8392ZM15.7405 20.5807C15.7405 20.8472 15.3725 21.0641 14.9203 21.0641H2.40782C1.95559 21.0641 1.58757 20.8472 1.58757 20.5807V6.49975C1.58757 6.23316 1.95551 6.01626 2.40782 6.01626H3.90134V6.88924C3.70532 6.89504 3.51919 6.94295 3.37979 7.02512C3.23093 7.11287 3.14732 7.2319 3.14732 7.35602V11.4471C3.14732 11.7055 3.50271 11.915 3.94111 11.915H13.3871C13.8255 11.915 14.1809 11.7055 14.1809 11.4471V7.35602C14.1809 7.10547 13.8466 6.90154 13.4268 6.88924V6.01626H14.9203C15.3725 6.01626 15.7405 6.23316 15.7405 6.49979V20.5807Z" fill="white"/>
<path d="M7.47863 13.3574H3.92172C3.48332 13.3574 3.12793 13.5669 3.12793 13.8254C3.12793 14.0838 3.48332 14.2933 3.92172 14.2933H7.47863C7.91703 14.2933 8.27242 14.0838 8.27242 13.8254C8.27242 13.5669 7.91703 13.3574 7.47863 13.3574Z" fill="white"/>
<path d="M13.4063 13.3574H9.84945C9.41105 13.3574 9.05566 13.5669 9.05566 13.8254C9.05566 14.0838 9.41105 14.2933 9.84945 14.2933H13.4063C13.8447 14.2933 14.2001 14.0838 14.2001 13.8254C14.2001 13.5669 13.8446 13.3574 13.4063 13.3574Z" fill="white"/>
<path d="M7.47863 15.7832H3.92172C3.48332 15.7832 3.12793 15.9927 3.12793 16.2511C3.12793 16.5096 3.48332 16.7191 3.92172 16.7191H7.47863C7.91703 16.7191 8.27242 16.5096 8.27242 16.2511C8.27242 15.9927 7.91703 15.7832 7.47863 15.7832Z" fill="white"/>
<path d="M13.4063 15.7832H9.84945C9.41105 15.7832 9.05566 15.9927 9.05566 16.2511C9.05566 16.5096 9.41105 16.7191 9.84945 16.7191H13.4063C13.8447 16.7191 14.2001 16.5096 14.2001 16.2511C14.2001 15.9927 13.8446 15.7832 13.4063 15.7832Z" fill="white"/>
<path d="M7.47863 18.2578H3.92172C3.48332 18.2578 3.12793 18.4673 3.12793 18.7257C3.12793 18.9842 3.48332 19.1937 3.92172 19.1937H7.47863C7.91703 19.1937 8.27242 18.9842 8.27242 18.7257C8.27242 18.4673 7.91703 18.2578 7.47863 18.2578Z" fill="white"/>
<path d="M13.4063 18.2578H9.84945C9.41105 18.2578 9.05566 18.4673 9.05566 18.7257C9.05566 18.9842 9.41105 19.1937 9.84945 19.1937H13.4063C13.8447 19.1937 14.2001 18.9842 14.2001 18.7257C14.2001 18.4673 13.8446 18.2578 13.4063 18.2578Z" fill="white"/>
</svg>
