<svg width="12" height="18" viewBox="0 0 12 18" fill="none" xmlns="http://www.w3.org/2000/svg">
<path d="M10.3326 4.02737H9.2983V0.370942C9.2983 0.166076 9.05218 0 8.74858 0H3.25147C2.94787 0 2.70175 0.166076 2.70175 0.370942V4.02737H1.66746C0.748079 4.02737 0 4.5321 0 5.15253V16.3148C0 16.9352 0.748026 17.44 1.66746 17.44H10.3326C11.252 17.44 12 16.9353 12 16.3148V5.15256C12 4.53214 11.252 4.02737 10.3326 4.02737ZM8.7211 6.21678V8.7035H3.279V6.21678H8.7211ZM8.19887 0.741884V5.46041L3.80118 5.46037V0.741884H8.19887ZM10.9006 16.3148C10.9006 16.5262 10.6458 16.6981 10.3326 16.6981H1.66746C1.35428 16.6981 1.09942 16.5262 1.09942 16.3148V5.15253C1.09942 4.9412 1.35423 4.76926 1.66746 4.76926H2.70175V5.46129C2.566 5.46588 2.43711 5.50386 2.34057 5.56901C2.23748 5.63857 2.17958 5.73293 2.17958 5.83132V9.07441C2.17958 9.27928 2.42569 9.44535 2.72929 9.44535H9.27081C9.57441 9.44535 9.82052 9.27928 9.82052 9.07441V5.83132C9.82052 5.6327 9.58902 5.47104 9.2983 5.46129V4.76926H10.3326C10.6458 4.76926 10.9006 4.9412 10.9006 5.15256V16.3148Z" />
<path d="M5.17701 10.5918H2.71377C2.41018 10.5918 2.16406 10.7579 2.16406 10.9627C2.16406 11.1676 2.41018 11.3337 2.71377 11.3337H5.17701C5.48061 11.3337 5.72672 11.1676 5.72672 10.9627C5.72672 10.7579 5.48061 10.5918 5.17701 10.5918Z" />
<path d="M9.28439 10.5918H6.8212C6.5176 10.5918 6.27148 10.7579 6.27148 10.9627C6.27148 11.1676 6.5176 11.3337 6.8212 11.3337H9.28439C9.58799 11.3337 9.8341 11.1676 9.8341 10.9627C9.8341 10.7579 9.58793 10.5918 9.28439 10.5918Z" />
<path d="M5.17701 12.5137H2.71377C2.41018 12.5137 2.16406 12.6797 2.16406 12.8846C2.16406 13.0895 2.41018 13.2556 2.71377 13.2556H5.17701C5.48061 13.2556 5.72672 13.0895 5.72672 12.8846C5.72672 12.6797 5.48061 12.5137 5.17701 12.5137Z" />
<path d="M9.28439 12.5137H6.8212C6.5176 12.5137 6.27148 12.6797 6.27148 12.8846C6.27148 13.0895 6.5176 13.2556 6.8212 13.2556H9.28439C9.58799 13.2556 9.8341 13.0895 9.8341 12.8846C9.8341 12.6797 9.58793 12.5137 9.28439 12.5137Z" />
<path d="M5.17701 14.4746H2.71377C2.41018 14.4746 2.16406 14.6407 2.16406 14.8456C2.16406 15.0504 2.41018 15.2165 2.71377 15.2165H5.17701C5.48061 15.2165 5.72672 15.0504 5.72672 14.8456C5.72672 14.6407 5.48061 14.4746 5.17701 14.4746Z" />
<path d="M9.28439 14.4746H6.8212C6.5176 14.4746 6.27148 14.6407 6.27148 14.8456C6.27148 15.0504 6.5176 15.2165 6.8212 15.2165H9.28439C9.58799 15.2165 9.8341 15.0504 9.8341 14.8456C9.8341 14.6407 9.58793 14.4746 9.28439 14.4746Z" />
</svg>
