<svg width="13" height="12" viewBox="0 0 13 12" fill="none" xmlns="http://www.w3.org/2000/svg">
<path d="M6.00523 4.36619C5.58185 4.36619 5.18537 4.52177 4.88518 4.8061C4.5864 5.09043 4.42073 5.46596 4.42073 5.86697C4.42073 6.26798 4.5864 6.64351 4.88518 6.92784C5.18537 7.21083 5.58185 7.36774 6.00523 7.36774C6.42862 7.36774 6.8251 7.21083 7.12529 6.92784C7.42407 6.64351 7.58974 6.26798 7.58974 5.86697C7.58974 5.46596 7.42407 5.09043 7.12529 4.8061C6.97867 4.66616 6.80415 4.55521 6.61187 4.47969C6.41959 4.40417 6.21339 4.36559 6.00523 4.36619ZM11.8434 7.52466L10.9173 6.77494C10.9612 6.52012 10.9839 6.25993 10.9839 6.00109C10.9839 5.74224 10.9612 5.48071 10.9173 5.22723L11.8434 4.47751C11.9134 4.42079 11.9634 4.34524 11.987 4.26091C12.0105 4.17658 12.0063 4.08747 11.9751 4.00542L11.9623 3.97055C11.7075 3.29552 11.3256 2.66982 10.8352 2.12375L10.8097 2.09559C10.7502 2.02927 10.6708 1.98159 10.5821 1.95885C10.4934 1.93611 10.3994 1.93936 10.3127 1.96817L9.16292 2.35577C8.73812 2.02584 8.26517 1.76566 7.75258 1.5846L7.53027 0.445941C7.51349 0.360162 7.46956 0.281248 7.40431 0.219681C7.33905 0.158115 7.25557 0.116812 7.16494 0.101259L7.12671 0.0945528C6.39039 -0.0315176 5.61442 -0.0315176 4.8781 0.0945528L4.83986 0.101259C4.74924 0.116812 4.66575 0.158115 4.60049 0.219681C4.53524 0.281248 4.49131 0.360162 4.47454 0.445941L4.25081 1.58996C3.74307 1.77246 3.27008 2.03202 2.85038 2.35846L1.69209 1.96817C1.60539 1.93913 1.5114 1.93576 1.42262 1.95852C1.33384 1.98128 1.25448 2.02908 1.19508 2.09559L1.16959 2.12375C0.680066 2.6704 0.298283 3.29595 0.0424518 3.97055L0.0297078 4.00542C-0.0340123 4.17307 0.0183798 4.36083 0.161396 4.47751L1.09879 5.23528C1.05489 5.48742 1.03365 5.74492 1.03365 5.99975C1.03365 6.25725 1.05489 6.51476 1.09879 6.76422L0.164228 7.52198C0.0942714 7.5787 0.0442026 7.65425 0.0206793 7.73858C-0.00284395 7.82291 0.00129285 7.91202 0.0325398 7.99407L0.0452838 8.02894C0.30158 8.70355 0.679652 9.3272 1.17242 9.87574L1.19791 9.90391C1.25746 9.97022 1.33682 10.0179 1.42555 10.0406C1.51427 10.0634 1.60819 10.0601 1.69493 10.0313L2.85321 9.64104C3.27518 9.96962 3.74529 10.2298 4.25364 10.4095L4.47737 11.5536C4.49414 11.6393 4.53807 11.7182 4.60333 11.7798C4.66858 11.8414 4.75207 11.8827 4.8427 11.8982L4.88093 11.9049C5.62449 12.0317 6.38597 12.0317 7.12954 11.9049L7.16777 11.8982C7.2584 11.8827 7.34189 11.8414 7.40714 11.7798C7.47239 11.7182 7.51633 11.6393 7.5331 11.5536L7.75541 10.4149C8.268 10.2325 8.74095 9.97365 9.16575 9.64372L10.3155 10.0313C10.4022 10.0604 10.4962 10.0637 10.585 10.041C10.6738 10.0182 10.7532 9.97041 10.8126 9.90391L10.838 9.87574C11.3308 9.32452 11.7089 8.70355 11.9652 8.02894L11.9779 7.99407C12.0388 7.82777 11.9864 7.64134 11.8434 7.52466ZM6.00523 8.22475C4.6303 8.22475 3.5159 7.16925 3.5159 5.86697C3.5159 4.56469 4.6303 3.50918 6.00523 3.50918C7.38017 3.50918 8.49456 4.56469 8.49456 5.86697C8.49456 7.16925 7.38017 8.22475 6.00523 8.22475Z" fill="#0066FF"/>
</svg>
