<svg width="16" height="16" viewBox="0 0 16 16" fill="none" xmlns="http://www.w3.org/2000/svg">
<path d="M12.7594 8.62361C12.7834 8.42361 12.7994 8.21561 12.7994 7.99961C12.7994 7.78361 12.7834 7.57561 12.7514 7.37561L14.1034 6.31961C14.2234 6.22361 14.2554 6.04761 14.1834 5.91161L12.9034 3.69561C12.8234 3.55161 12.6554 3.50361 12.5114 3.55161L10.9194 4.19161C10.5834 3.93561 10.2314 3.72761 9.83942 3.56761L9.59942 1.87161C9.57542 1.71161 9.43942 1.59961 9.27942 1.59961H6.71942C6.55942 1.59961 6.43142 1.71161 6.40742 1.87161L6.16742 3.56761C5.77542 3.72761 5.41542 3.94361 5.08742 4.19161L3.49542 3.55161C3.35142 3.49561 3.18342 3.55161 3.10342 3.69561L1.82342 5.91161C1.74342 6.05561 1.77542 6.22361 1.90342 6.31961L3.25542 7.37561C3.22342 7.57561 3.19942 7.79161 3.19942 7.99961C3.19942 8.20761 3.21542 8.42361 3.24742 8.62361L1.89542 9.67961C1.77542 9.77561 1.74342 9.95161 1.81542 10.0876L3.09542 12.3036C3.17542 12.4476 3.34342 12.4956 3.48742 12.4476L5.07942 11.8076C5.41542 12.0636 5.76742 12.2716 6.15942 12.4316L6.39942 14.1276C6.43142 14.2876 6.55942 14.3996 6.71942 14.3996H9.27942C9.43942 14.3996 9.57542 14.2876 9.59142 14.1276L9.83142 12.4316C10.2234 12.2716 10.5834 12.0556 10.9114 11.8076L12.5034 12.4476C12.6474 12.5036 12.8154 12.4476 12.8954 12.3036L14.1754 10.0876C14.2554 9.94361 14.2234 9.77561 14.0954 9.67961L12.7594 8.62361ZM7.99942 10.3996C6.67942 10.3996 5.59942 9.31961 5.59942 7.99961C5.59942 6.67961 6.67942 5.59961 7.99942 5.59961C9.31942 5.59961 10.3994 6.67961 10.3994 7.99961C10.3994 9.31961 9.31942 10.3996 7.99942 10.3996Z"/>
</svg>
