<svg width="16" height="15" viewBox="0 0 16 15" fill="none" xmlns="http://www.w3.org/2000/svg">
<path d="M8.4353 10.125C7.71957 10.125 7.03316 9.84844 6.52707 9.35616C6.02098 8.86387 5.73666 8.19619 5.73666 7.5C5.73666 6.80381 6.02098 6.13613 6.52707 5.64384C7.03316 5.15156 7.71957 4.875 8.4353 4.875C9.15102 4.875 9.83743 5.15156 10.3435 5.64384C10.8496 6.13613 11.1339 6.80381 11.1339 7.5C11.1339 8.19619 10.8496 8.86387 10.3435 9.35616C9.83743 9.84844 9.15102 10.125 8.4353 10.125ZM14.1641 8.2275C14.195 7.9875 14.2181 7.7475 14.2181 7.5C14.2181 7.2525 14.195 7.005 14.1641 6.75L15.791 5.5275C15.9375 5.415 15.9761 5.2125 15.8835 5.0475L14.3415 2.4525C14.2489 2.2875 14.0408 2.22 13.8711 2.2875L11.9512 3.0375C11.5503 2.745 11.1339 2.49 10.6482 2.3025L10.3629 0.315C10.3321 0.135 10.1701 0 9.97738 0H6.89322C6.70046 0 6.53854 0.135 6.5077 0.315L6.22241 2.3025C5.73666 2.49 5.3203 2.745 4.91935 3.0375L2.99947 2.2875C2.82984 2.22 2.62166 2.2875 2.52913 2.4525L0.987051 5.0475C0.886816 5.2125 0.933078 5.415 1.07958 5.5275L2.70647 6.75C2.67563 7.005 2.6525 7.2525 2.6525 7.5C2.6525 7.7475 2.67563 7.9875 2.70647 8.2275L1.07958 9.4725C0.933078 9.585 0.886816 9.7875 0.987051 9.9525L2.52913 12.5475C2.62166 12.7125 2.82984 12.7725 2.99947 12.7125L4.91935 11.955C5.3203 12.255 5.73666 12.51 6.22241 12.6975L6.5077 14.685C6.53854 14.865 6.70046 15 6.89322 15H9.97738C10.1701 15 10.3321 14.865 10.3629 14.685L10.6482 12.6975C11.1339 12.5025 11.5503 12.255 11.9512 11.955L13.8711 12.7125C14.0408 12.7725 14.2489 12.7125 14.3415 12.5475L15.8835 9.9525C15.9761 9.7875 15.9375 9.585 15.791 9.4725L14.1641 8.2275Z" fill="#FF4400"/>
</svg>
