<svg width="17" height="18" viewBox="0 0 17 18" fill="none" xmlns="http://www.w3.org/2000/svg">
<path d="M12.206 10.8C12.274 10.206 12.325 9.612 12.325 9C12.325 8.388 12.274 7.794 12.206 7.2H15.079C15.215 7.776 15.3 8.379 15.3 9C15.3 9.621 15.215 10.224 15.079 10.8H12.206ZM10.7015 15.804C11.2115 14.805 11.6025 13.725 11.8745 12.6H14.382C13.566 14.085 12.2655 15.237 10.7015 15.804ZM10.489 10.8H6.511C6.426 10.206 6.375 9.612 6.375 9C6.375 8.388 6.426 7.785 6.511 7.2H10.489C10.5655 7.785 10.625 8.388 10.625 9C10.625 9.612 10.5655 10.206 10.489 10.8ZM8.5 16.164C7.7945 15.084 7.225 13.887 6.8765 12.6H10.1235C9.775 13.887 9.2055 15.084 8.5 16.164ZM5.1 5.4H2.618C3.4255 3.906 4.7345 2.754 6.29 2.196C5.78 3.195 5.3975 4.275 5.1 5.4ZM2.618 12.6H5.1C5.3975 13.725 5.78 14.805 6.29 15.804C4.7345 15.237 3.4255 14.085 2.618 12.6ZM1.921 10.8C1.785 10.224 1.7 9.621 1.7 9C1.7 8.379 1.785 7.776 1.921 7.2H4.794C4.726 7.794 4.675 8.388 4.675 9C4.675 9.612 4.726 10.206 4.794 10.8H1.921ZM8.5 1.827C9.2055 2.907 9.775 4.113 10.1235 5.4H6.8765C7.225 4.113 7.7945 2.907 8.5 1.827ZM14.382 5.4H11.8745C11.6025 4.275 11.2115 3.195 10.7015 2.196C12.2655 2.763 13.566 3.906 14.382 5.4ZM8.5 0C3.7995 0 0 4.05 0 9C0 11.3869 0.895533 13.6761 2.48959 15.364C3.27889 16.1997 4.21592 16.8626 5.24719 17.3149C6.27846 17.7672 7.38376 18 8.5 18C10.7543 18 12.9163 17.0518 14.5104 15.364C16.1045 13.6761 17 11.3869 17 9C17 7.8181 16.7801 6.64778 16.353 5.55585C15.9258 4.46392 15.2997 3.47177 14.5104 2.63604C13.7211 1.80031 12.7841 1.13738 11.7528 0.685084C10.7215 0.232792 9.61624 0 8.5 0Z" fill="#828282"/>
</svg>
