<svg width="18" height="18" viewBox="0 0 18 18" fill="none" xmlns="http://www.w3.org/2000/svg">
<path d="M15.2785 4H14.4217V3C14.4217 2.20435 14.1509 1.44129 13.6689 0.87868C13.1869 0.316071 12.5332 0 11.8515 0H3.28409C2.60243 0 1.94868 0.316071 1.46667 0.87868C0.984658 1.44129 0.713867 2.20435 0.713867 3V15C0.713867 15.7956 0.984658 16.5587 1.46667 17.1213C1.94868 17.6839 2.60243 18 3.28409 18H15.2785C15.9601 18 16.6139 17.6839 17.0959 17.1213C17.5779 16.5587 17.8487 15.7956 17.8487 15V7C17.8487 6.20435 17.5779 5.44129 17.0959 4.87868C16.6139 4.31607 15.9601 4 15.2785 4ZM3.28409 2H11.8515C12.0787 2 12.2966 2.10536 12.4573 2.29289C12.618 2.48043 12.7083 2.73478 12.7083 3V4H3.28409C3.05687 4 2.83895 3.89464 2.67828 3.70711C2.51761 3.51957 2.42735 3.26522 2.42735 3C2.42735 2.73478 2.51761 2.48043 2.67828 2.29289C2.83895 2.10536 3.05687 2 3.28409 2ZM16.1352 12H15.2785C15.0513 12 14.8333 11.8946 14.6727 11.7071C14.512 11.5196 14.4217 11.2652 14.4217 11C14.4217 10.7348 14.512 10.4804 14.6727 10.2929C14.8333 10.1054 15.0513 10 15.2785 10H16.1352V12ZM16.1352 8H15.2785C14.5968 8 13.9431 8.31607 13.4611 8.87868C12.979 9.44129 12.7083 10.2044 12.7083 11C12.7083 11.7956 12.979 12.5587 13.4611 13.1213C13.9431 13.6839 14.5968 14 15.2785 14H16.1352V15C16.1352 15.2652 16.045 15.5196 15.8843 15.7071C15.7236 15.8946 15.5057 16 15.2785 16H3.28409C3.05687 16 2.83895 15.8946 2.67828 15.7071C2.51761 15.5196 2.42735 15.2652 2.42735 15V5.83C2.70259 5.94302 2.99231 6.00051 3.28409 6H15.2785C15.5057 6 15.7236 6.10536 15.8843 6.29289C16.045 6.48043 16.1352 6.73478 16.1352 7V8Z" fill="#828282"/>
</svg>
