<svg width="19" height="18" viewBox="0 0 19 18" fill="none" xmlns="http://www.w3.org/2000/svg">
<path d="M0.511363 10.3233L1.70619 10.5191C1.89496 11.434 2.25622 12.3046 2.77066 13.0844L2.0631 14.0719C1.91628 14.2718 1.91881 14.5445 2.06931 14.7416C2.24772 14.9597 2.4373 15.1684 2.63725 15.367C2.83896 15.569 3.0469 15.7552 3.26105 15.9352C3.45829 16.086 3.7314 16.0885 3.9314 15.9414L4.91829 15.2335C5.69731 15.7483 6.56731 16.1098 7.48173 16.2986L7.67726 17.4944C7.7145 17.739 7.90967 17.9291 8.15518 17.9599C8.32524 17.9791 8.49656 17.9909 8.6716 17.9996C8.7566 18.0038 8.83962 17.9731 8.90146 17.9146C8.9633 17.8562 8.99865 17.775 8.99931 17.6899V15.2028C8.99841 15.0352 8.86524 14.8981 8.69767 14.8925C5.5615 14.7299 3.10201 12.1396 3.10201 8.99922C3.10201 5.85884 5.5615 3.26855 8.69767 3.10597C8.86524 3.10029 8.99841 2.9633 8.99931 2.79562V0.310693C8.99889 0.225633 8.96378 0.144418 8.90209 0.0858199C8.8404 0.0272214 8.75747 -0.00362467 8.6725 0.000339968C8.49809 0.00757843 8.32565 0.0198027 8.15515 0.0369528C7.90958 0.0704119 7.71519 0.261285 7.67723 0.506191L7.4817 1.70195C6.56731 1.89108 5.69734 2.25264 4.91826 2.76735L3.93137 2.05916C3.73137 1.91201 3.45826 1.91454 3.26102 2.06537C3.04353 2.24402 2.83533 2.43369 2.63722 2.63361C2.43577 2.8307 2.24613 3.0395 2.06928 3.25894C1.91815 3.4563 1.91562 3.72977 2.06307 3.92989L2.77063 4.91742C2.25631 5.69692 1.89505 6.56719 1.70616 7.48178L0.511333 7.67731C0.266667 7.71468 0.0765745 7.90997 0.0458185 8.15556C-0.0152729 8.7125 -0.0152729 9.27446 0.0458185 9.8314C0.0734208 10.0811 0.263573 10.282 0.511363 10.3233Z"/>
<path d="M8.70265 4.35376C6.25086 4.50907 4.3418 6.5429 4.3418 8.99959C4.3418 11.4563 6.25089 13.4901 8.70265 13.6454C8.78066 13.6487 8.85658 13.6197 8.91266 13.5654C8.96874 13.5111 9.00006 13.4361 8.99934 13.358V4.64114C9.00009 4.56305 8.96877 4.48811 8.91266 4.43378C8.85658 4.37944 8.78066 4.35052 8.70265 4.35376Z"/>
<path d="M11.1718 4.6555H9.62012V5.27617H11.1718C11.6854 5.27464 12.1013 4.85872 12.1028 4.34514V2.42599C12.5304 2.27485 12.7868 1.83769 12.7101 1.39077C12.6334 0.943849 12.246 0.617188 11.7925 0.617188C11.3391 0.617188 10.9515 0.943849 10.8749 1.39077C10.7982 1.83769 11.0546 2.27485 11.4821 2.42599V4.34514C11.4821 4.51656 11.3432 4.6555 11.1718 4.6555Z" />
<path d="M9.62012 6.51524H12.7236C12.895 6.51524 13.0339 6.37629 13.0339 6.20488C13.0339 6.03347 12.895 5.89453 12.7236 5.89453H9.62012V6.51524Z" />
<path d="M9.62012 13.3453H11.1718C11.3432 13.3453 11.4822 13.4842 11.4822 13.6556V15.5748C11.0547 15.7259 10.7982 16.1631 10.8749 16.61C10.9516 17.0569 11.3391 17.3836 11.7925 17.3836C12.246 17.3836 12.6335 17.0569 12.7102 16.61C12.7868 16.1631 12.5304 15.7259 12.1029 15.5748V13.6556C12.1013 13.1421 11.6854 12.7261 11.1719 12.7246H9.62015V13.3453H9.62012Z" />
<path d="M14.2753 10.2422H9.62012V10.8629H14.2753C14.4467 10.8629 14.5856 11.0018 14.5856 11.1732V12.782C14.1581 12.9332 13.9017 13.3703 13.9783 13.8173C14.055 14.2642 14.4425 14.5909 14.896 14.5909C15.3494 14.5909 15.7369 14.2642 15.8136 13.8173C15.8903 13.3703 15.6338 12.9332 15.2063 12.782V11.1732C15.2048 10.6596 14.7888 10.2437 14.2753 10.2422Z" />
<path d="M17.3787 8.06836C16.9856 8.06998 16.6358 8.31837 16.5048 8.68904H9.62012V9.30971H16.5048C16.6633 9.75492 17.1308 10.0103 17.5911 9.90309C18.0514 9.79592 18.358 9.36041 18.3037 8.89093C18.2493 8.42148 17.8513 8.06752 17.3787 8.06836Z" />
<path d="M13.0339 11.7928C13.0339 11.6214 12.895 11.4824 12.7236 11.4824H9.62012V12.1031H12.7236C12.895 12.1031 13.0339 11.9642 13.0339 11.7928Z" />
<path d="M15.2063 6.82779V5.21896C15.6338 5.06782 15.8903 4.63066 15.8136 4.18374C15.7369 3.73682 15.3494 3.41016 14.896 3.41016C14.4425 3.41016 14.055 3.73682 13.9783 4.18374C13.9017 4.63066 14.1581 5.06782 14.5856 5.21896V6.82779C14.5856 6.9992 14.4467 7.13814 14.2753 7.13814H9.62012V7.75882H14.2753C14.7889 7.75726 15.2048 7.34133 15.2063 6.82779Z" />
</svg>
