<svg width="18" height="18" viewBox="0 0 18 18" fill="none" xmlns="http://www.w3.org/2000/svg">
<g clip-path="url(#clip0_1833_21533)">
<path d="M3.92475 9.59619L0.17475 6.0337C0.063 5.9272 0 5.7802 0 5.6257C0 5.4712 0.063 5.3242 0.17475 5.2177L3.92475 1.65521C4.28475 1.31471 4.875 1.57196 4.875 2.06321V3.7507H11.8125C12.3293 3.7507 12.75 4.17145 12.75 4.6882V6.5632C12.75 7.07995 12.3293 7.5007 11.8125 7.5007H4.875V9.18819C4.875 9.68319 4.281 9.93369 3.92475 9.59619Z" />
<path d="M12.75 5.625H0C0 5.7795 0.063 5.9265 0.17475 6.033L3.92475 9.59549C4.038 9.70199 4.1745 9.74999 4.308 9.74999C4.5975 9.74999 4.875 9.52574 4.875 9.18749V7.5H11.8125C12.3293 7.5 12.75 7.07925 12.75 6.5625V5.625Z" />
<path d="M13.125 15.9377V14.2502H6.1875C5.67075 14.2502 5.25 13.8294 5.25 13.3127V11.4377C5.25 10.9209 5.67075 10.5002 6.1875 10.5002H13.125V8.81267C13.125 8.31917 13.7183 8.06642 14.0753 8.40467L17.8253 11.9672C17.937 12.0737 18 12.2207 18 12.3752C18 12.5297 17.937 12.6767 17.8253 12.7832L14.0753 16.3457C13.7183 16.6839 13.125 16.4319 13.125 15.9377Z" />
<path d="M18 12.375H5.25V13.3125C5.25 13.8292 5.67075 14.25 6.1875 14.25H13.125V15.9375C13.125 16.2757 13.4025 16.5 13.692 16.5C13.8255 16.5 13.962 16.452 14.0745 16.3455L17.8245 12.783C17.937 12.6765 18 12.5295 18 12.375Z" />
</g>
<defs>
<clipPath id="clip0_1833_21533">
<rect width="18" height="18" fill="white"/>
</clipPath>
</defs>
</svg>
