<svg width="21" height="18" viewBox="0 0 21 18" fill="none" xmlns="http://www.w3.org/2000/svg">
<path d="M10.315 7.01082C12.251 7.01082 13.8204 5.4414 13.8204 3.50541C13.8204 1.56943 12.251 0 10.315 0C8.379 0 6.80957 1.56943 6.80957 3.50541C6.80957 5.4414 8.379 7.01082 10.315 7.01082Z" />
<path d="M17.4065 7.01025C18.6304 7.01025 19.6226 6.01809 19.6226 4.79419C19.6226 3.57029 18.6304 2.57812 17.4065 2.57812C16.1826 2.57812 15.1904 3.57029 15.1904 4.79419C15.1904 6.01809 16.1826 7.01025 17.4065 7.01025Z" />
<path d="M3.22388 7.01025C4.44778 7.01025 5.43994 6.01809 5.43994 4.79419C5.43994 3.57029 4.44778 2.57812 3.22388 2.57812C1.99998 2.57812 1.00781 3.57029 1.00781 4.79419C1.00781 6.01809 1.99998 7.01025 3.22388 7.01025Z" />
<path d="M5.40679 9.00119C4.53447 8.28649 3.74446 8.3811 2.73583 8.3811C1.2273 8.3811 0 9.60114 0 11.1004V15.5007C0 16.1518 0.531452 16.6813 1.18499 16.6813C4.00648 16.6813 3.66658 16.7323 3.66658 16.5596C3.66658 13.4415 3.29726 11.1549 5.40679 9.00119Z" />
<path d="M11.2744 8.39715C9.51268 8.25021 7.98138 8.39885 6.66057 9.48907C4.45027 11.2595 4.87563 13.6433 4.87563 16.5595C4.87563 17.3311 5.50338 17.9705 6.28666 17.9705C14.7916 17.9705 15.1301 18.2449 15.6344 17.128C15.7998 16.7503 15.7545 16.8704 15.7545 13.2572C15.7545 10.3873 13.2696 8.39715 11.2744 8.39715Z" />
<path d="M17.8936 8.381C16.8795 8.381 16.0938 8.28736 15.2227 9.00109C17.3164 11.1388 16.9629 13.2694 16.9629 16.5595C16.9629 16.7333 16.6807 16.6812 19.4022 16.6812C20.0791 16.6812 20.6294 16.1328 20.6294 15.4587V11.1003C20.6294 9.60104 19.4022 8.381 17.8936 8.381Z" />
</svg>
